<?xml version="1.0" standalone="no"?>
<!DOCTYPE svg PUBLIC "-//W3C//DTD SVG 20010904//EN"
 "http://www.w3.org/TR/2001/REC-SVG-20010904/DTD/svg10.dtd">
<svg version="1.0" xmlns="http://www.w3.org/2000/svg"
 width="700.000000pt" height="700.000000pt" viewBox="0 0 700.000000 700.000000"
 preserveAspectRatio="xMidYMid meet">
<metadata>
Created by potrace 1.14, written by Peter Selinger 2001-2017
</metadata>
<g transform="translate(0.000000,700.000000) scale(0.100000,-0.100000)"
fill="#000000" stroke="none">
<path d="M3325 6360 c-92 -14 -109 -17 -190 -40 -502 -141 -875 -548 -981
-1071 -13 -67 -17 -154 -20 -433 -2 -192 -5 -351 -8 -353 -3 -3 -85 -6 -183
-7 -181 -2 -243 -12 -316 -52 -15 -9 -38 -21 -51 -28 -92 -47 -190 -171 -233
-291 l-28 -80 -1 -1443 c-1 -906 2 -1459 8 -1485 14 -58 14 -59 23 -82 63
-168 180 -281 353 -340 l67 -24 1710 0 c1042 -1 1733 3 1768 9 98 16 202 73
283 155 76 77 112 140 143 247 19 65 19 116 18 1520 l-2 1453 -26 66 c-71 184
-185 293 -369 355 -45 14 -88 18 -237 18 l-183 1 0 25 c-1 14 -2 171 -4 350
-2 179 -7 341 -10 360 -20 108 -31 154 -57 235 -68 210 -173 379 -339 546
-204 206 -461 336 -751 383 -94 15 -298 18 -384 6z m345 -526 c295 -60 547
-290 638 -579 34 -111 39 -165 40 -489 l1 -306 -22 -1 c-12 0 -393 -1 -847 -1
l-825 0 0 333 c1 315 2 339 24 419 82 306 315 537 621 616 104 26 261 30 370
8z m-37 -2790 c199 -51 359 -218 401 -418 38 -180 -16 -357 -149 -492 -109
-110 -232 -162 -385 -162 -94 0 -160 16 -245 57 -112 56 -212 165 -262 286
-111 268 24 588 295 704 102 43 238 53 345 25z"/>
</g>
</svg>
